<svg width="42" height="49" viewBox="0 0 42 49" fill="none" xmlns="http://www.w3.org/2000/svg">
<path d="M36.6609 0H4.86464C2.18317 0 0 2.25396 0 5.04703V38.171C0 40.9641 2.183 43.2181 4.86448 43.2181H31.7729L30.5152 38.6855L33.5525 41.601L36.4236 44.345L41.5254 49V5.04703C41.5254 2.25396 39.3424 0 36.6609 0ZM27.5017 31.9972C27.5017 31.9972 26.6475 30.9436 25.9355 30.0125C29.0441 29.106 30.2305 27.097 30.2305 27.097C29.2576 27.7586 28.3322 28.2242 27.5017 28.5424C26.3153 29.0571 25.1762 29.3999 24.0611 29.596C21.783 30.037 19.6949 29.9146 17.9153 29.5716C16.5626 29.3019 15.3999 28.91 14.4272 28.5181C13.8813 28.2975 13.2881 28.0281 12.6948 27.6851C12.6237 27.636 12.5525 27.6115 12.4813 27.5625C12.4339 27.538 12.4101 27.5136 12.3864 27.4891C11.9593 27.2441 11.722 27.0726 11.722 27.0726C11.722 27.0726 12.861 29.0326 15.8746 29.9635C15.1628 30.8947 14.2847 31.997 14.2847 31.997C9.04054 31.8255 7.04748 28.2731 7.04748 28.2731C7.04748 20.3841 10.4644 13.9895 10.4644 13.9895C13.8813 11.3435 17.1322 11.417 17.1322 11.417L17.3695 11.7111C13.0984 12.9848 11.1288 14.9205 11.1288 14.9205C11.1288 14.9205 11.6508 14.6266 12.5287 14.2101C15.0677 13.0585 17.0848 12.7401 17.9153 12.6666C18.0576 12.6419 18.1763 12.6175 18.3187 12.6175C19.9088 12.4036 21.5181 12.3872 23.112 12.5686C25.366 12.8381 27.7865 13.5241 30.2542 14.9205C30.2542 14.9205 28.3797 13.0831 24.3457 11.8091L24.6779 11.4172C24.6779 11.4172 27.9288 11.3435 31.3457 13.9897C31.3457 13.9897 34.7628 20.3841 34.7628 28.2731C34.7628 28.2731 32.7457 31.8257 27.5017 31.9972ZM16.4678 20.5556C15.1153 20.5556 14.0476 21.7805 14.0476 23.275C14.0476 24.7696 15.1389 25.9945 16.4678 25.9945C17.8204 25.9945 18.8881 24.7696 18.8881 23.275C18.9119 21.7805 17.8202 20.5556 16.4678 20.5556ZM25.1289 20.5556C23.7762 20.5556 22.7084 21.7805 22.7084 23.275C22.7084 24.7696 23.8001 25.9945 25.1289 25.9945C26.4814 25.9945 27.549 24.7696 27.549 23.275C27.549 21.7805 26.4814 20.5556 25.1289 20.5556Z" fill="#7289DA" fill-opacity="0.3"/>
<g filter="url(#filter0_bii)">
<path d="M36.6609 0H4.86464C2.18317 0 0 2.25396 0 5.04703V38.171C0 40.9641 2.183 43.2181 4.86448 43.2181H31.7729L30.5152 38.6855L33.5525 41.601L36.4236 44.345L41.5254 49V5.04703C41.5254 2.25396 39.3424 0 36.6609 0ZM27.5017 31.9972C27.5017 31.9972 26.6475 30.9436 25.9355 30.0125C29.0441 29.106 30.2305 27.097 30.2305 27.097C29.2576 27.7586 28.3322 28.2242 27.5017 28.5424C26.3153 29.0571 25.1762 29.3999 24.0611 29.596C21.783 30.037 19.6949 29.9146 17.9153 29.5716C16.5626 29.3019 15.3999 28.91 14.4272 28.5181C13.8813 28.2975 13.2881 28.0281 12.6948 27.6851C12.6237 27.636 12.5525 27.6115 12.4813 27.5625C12.4339 27.538 12.4101 27.5136 12.3864 27.4891C11.9593 27.2441 11.722 27.0726 11.722 27.0726C11.722 27.0726 12.861 29.0326 15.8746 29.9635C15.1628 30.8947 14.2847 31.997 14.2847 31.997C9.04054 31.8255 7.04748 28.2731 7.04748 28.2731C7.04748 20.3841 10.4644 13.9895 10.4644 13.9895C13.8813 11.3435 17.1322 11.417 17.1322 11.417L17.3695 11.7111C13.0984 12.9848 11.1288 14.9205 11.1288 14.9205C11.1288 14.9205 11.6508 14.6266 12.5287 14.2101C15.0677 13.0585 17.0848 12.7401 17.9153 12.6666C18.0576 12.6419 18.1763 12.6175 18.3187 12.6175C19.9088 12.4036 21.5181 12.3872 23.112 12.5686C25.366 12.8381 27.7865 13.5241 30.2542 14.9205C30.2542 14.9205 28.3797 13.0831 24.3457 11.8091L24.6779 11.4172C24.6779 11.4172 27.9288 11.3435 31.3457 13.9897C31.3457 13.9897 34.7628 20.3841 34.7628 28.2731C34.7628 28.2731 32.7457 31.8257 27.5017 31.9972ZM16.4678 20.5556C15.1153 20.5556 14.0476 21.7805 14.0476 23.275C14.0476 24.7696 15.1389 25.9945 16.4678 25.9945C17.8204 25.9945 18.8881 24.7696 18.8881 23.275C18.9119 21.7805 17.8202 20.5556 16.4678 20.5556ZM25.1289 20.5556C23.7762 20.5556 22.7084 21.7805 22.7084 23.275C22.7084 24.7696 23.8001 25.9945 25.1289 25.9945C26.4814 25.9945 27.549 24.7696 27.549 23.275C27.549 21.7805 26.4814 20.5556 25.1289 20.5556Z" fill="white" fill-opacity="0.01"/>
</g>
<defs>
<filter id="filter0_bii" x="-17.4685" y="-17.4685" width="76.4624" height="83.937" filterUnits="userSpaceOnUse" color-interpolation-filters="sRGB">
<feFlood flood-opacity="0" result="BackgroundImageFix"/>
<feGaussianBlur in="BackgroundImage" stdDeviation="8.73424"/>
<feComposite in2="SourceAlpha" operator="in" result="effect1_backgroundBlur"/>
<feBlend mode="normal" in="SourceGraphic" in2="effect1_backgroundBlur" result="shape"/>
<feColorMatrix in="SourceAlpha" type="matrix" values="0 0 0 0 0 0 0 0 0 0 0 0 0 0 0 0 0 0 127 0" result="hardAlpha"/>
<feOffset dy="0.812487"/>
<feGaussianBlur stdDeviation="0.406244"/>
<feComposite in2="hardAlpha" operator="arithmetic" k2="-1" k3="1"/>
<feColorMatrix type="matrix" values="0 0 0 0 1 0 0 0 0 1 0 0 0 0 1 0 0 0 0.15 0"/>
<feBlend mode="normal" in2="shape" result="effect2_innerShadow"/>
<feColorMatrix in="SourceAlpha" type="matrix" values="0 0 0 0 0 0 0 0 0 0 0 0 0 0 0 0 0 0 127 0" result="hardAlpha"/>
<feOffset/>
<feGaussianBlur stdDeviation="6.90614"/>
<feComposite in2="hardAlpha" operator="arithmetic" k2="-1" k3="1"/>
<feColorMatrix type="matrix" values="0 0 0 0 1 0 0 0 0 1 0 0 0 0 1 0 0 0 0.05 0"/>
<feBlend mode="normal" in2="effect2_innerShadow" result="effect3_innerShadow"/>
</filter>
</defs>
</svg>
