<svg width="81" height="71" viewBox="0 0 81 71" fill="none" xmlns="http://www.w3.org/2000/svg">
<g filter="url(#filter0_b)">
<path d="M50.3748 12.0017C47.6126 11.9735 44.8792 11.917 42.1458 11.917V11.3805C42.1171 7.14456 38.5781 3.67112 34.2334 3.64288H31.385C30.5218 3.64288 29.8025 2.96514 29.8025 2.11795C29.8025 0.960139 28.853 0 27.6445 0C26.4649 0 25.4866 0.960139 25.4866 2.11795C25.4866 5.28077 28.1337 7.87879 31.385 7.87879H34.2334C36.1899 7.87879 37.83 9.46019 37.83 11.4087V11.8888C33.9169 11.8888 30.0614 11.9453 26.2922 12.0017C16.2794 12.0017 9 19.1181 9 28.9454V41.5684C9 51.3957 16.2794 58.512 26.2635 58.512C30.2628 58.5967 34.3197 58.625 38.3479 58.625C42.376 58.625 46.3754 58.5967 50.3748 58.512C60.3588 58.512 67.6382 51.3957 67.6382 41.5684V28.9454C67.6382 19.1181 60.3588 12.0017 50.3748 12.0017Z" fill="url(#paint0_linear)"/>
</g>
<g opacity="0.5" filter="url(#filter1_f)">
<path d="M47.5226 21.0449H28.7122C21.8574 21.0449 17.9736 23.906 17.9736 28.9558V42.7997C17.9736 47.8495 21.8574 50.7106 28.7122 50.7106H47.5226C54.3774 50.7106 58.2433 47.8495 58.2433 42.7997V28.9558C58.2433 23.906 54.3774 21.0449 47.5226 21.0449Z" fill="#0097F4"/>
</g>
<g filter="url(#filter2_b)">
<mask id="path-3-outside-1" maskUnits="userSpaceOnUse" x="19.3037" y="23.015" width="60" height="48" fill="black">
<rect fill="white" x="19.3037" y="23.015" width="60" height="48"/>
<path fill-rule="evenodd" clip-rule="evenodd" d="M58.2794 24.0919C59.1884 24.1043 60.0995 24.1168 61.0138 24.1262C70.8375 24.1262 78 31.1281 78 40.7974V53.2175C78 62.8869 70.8375 69.8888 61.0138 69.8888C57.0787 69.9722 53.1436 70 49.1801 70C45.2167 70 41.225 69.9722 37.2898 69.8888C27.4662 69.8888 20.3037 62.8869 20.3037 53.2175V40.7974C20.3037 31.1281 27.4662 24.1262 37.3182 24.1262C41.0268 24.0706 44.8204 24.015 48.6706 24.015C50.0861 24.015 51.5016 24.015 52.9171 24.0428C54.7018 24.0428 56.4864 24.0673 58.2794 24.0919ZM45.8399 49.0784H42.8673V52.0237C42.8673 53.1629 41.9047 54.1076 40.744 54.1076C39.555 54.1076 38.6208 53.1629 38.6208 52.0237V49.0784H35.6199C34.4592 49.0784 33.4966 48.1615 33.4966 46.9945C33.4966 45.8553 34.4592 44.9106 35.6199 44.9106H38.6208V41.9931C38.6208 40.8539 39.555 39.9092 40.744 39.9092C41.9047 39.9092 42.8673 40.8539 42.8673 41.9931V44.9106H45.8399C47.0006 44.9106 47.9631 45.8553 47.9631 46.9945C47.9631 48.1615 47.0006 49.0784 45.8399 49.0784ZM57.8722 44.3838H58.1553C59.316 44.3838 60.2786 43.4668 60.2786 42.2998C60.2786 41.1606 59.316 40.2159 58.1553 40.2159H57.8722C56.6832 40.2159 55.7489 41.1606 55.7489 42.2998C55.7489 43.4668 56.6832 44.3838 57.8722 44.3838ZM62.7127 53.9412H62.9958C64.1566 53.9412 65.1191 53.0243 65.1191 51.8573C65.1191 50.7181 64.1566 49.7734 62.9958 49.7734H62.7127C61.5237 49.7734 60.5895 50.7181 60.5895 51.8573C60.5895 53.0243 61.5237 53.9412 62.7127 53.9412Z"/>
</mask>
<path fill-rule="evenodd" clip-rule="evenodd" d="M58.2794 24.0919C59.1884 24.1043 60.0995 24.1168 61.0138 24.1262C70.8375 24.1262 78 31.1281 78 40.7974V53.2175C78 62.8869 70.8375 69.8888 61.0138 69.8888C57.0787 69.9722 53.1436 70 49.1801 70C45.2167 70 41.225 69.9722 37.2898 69.8888C27.4662 69.8888 20.3037 62.8869 20.3037 53.2175V40.7974C20.3037 31.1281 27.4662 24.1262 37.3182 24.1262C41.0268 24.0706 44.8204 24.015 48.6706 24.015C50.0861 24.015 51.5016 24.015 52.9171 24.0428C54.7018 24.0428 56.4864 24.0673 58.2794 24.0919ZM45.8399 49.0784H42.8673V52.0237C42.8673 53.1629 41.9047 54.1076 40.744 54.1076C39.555 54.1076 38.6208 53.1629 38.6208 52.0237V49.0784H35.6199C34.4592 49.0784 33.4966 48.1615 33.4966 46.9945C33.4966 45.8553 34.4592 44.9106 35.6199 44.9106H38.6208V41.9931C38.6208 40.8539 39.555 39.9092 40.744 39.9092C41.9047 39.9092 42.8673 40.8539 42.8673 41.9931V44.9106H45.8399C47.0006 44.9106 47.9631 45.8553 47.9631 46.9945C47.9631 48.1615 47.0006 49.0784 45.8399 49.0784ZM57.8722 44.3838H58.1553C59.316 44.3838 60.2786 43.4668 60.2786 42.2998C60.2786 41.1606 59.316 40.2159 58.1553 40.2159H57.8722C56.6832 40.2159 55.7489 41.1606 55.7489 42.2998C55.7489 43.4668 56.6832 44.3838 57.8722 44.3838ZM62.7127 53.9412H62.9958C64.1566 53.9412 65.1191 53.0243 65.1191 51.8573C65.1191 50.7181 64.1566 49.7734 62.9958 49.7734H62.7127C61.5237 49.7734 60.5895 50.7181 60.5895 51.8573C60.5895 53.0243 61.5237 53.9412 62.7127 53.9412Z" fill="#0097F4" fill-opacity="0.25"/>
<path d="M61.0138 24.1262L61.0036 25.1262H61.0138V24.1262ZM58.2794 24.0919L58.2931 23.0919L58.2794 24.0919ZM61.0138 69.8888V68.8888C61.0068 68.8888 60.9997 68.8889 60.9926 68.8891L61.0138 69.8888ZM37.2898 69.8888L37.311 68.8891C37.304 68.8889 37.2969 68.8888 37.2898 68.8888V69.8888ZM37.3182 24.1262V25.1262C37.3232 25.1262 37.3281 25.1261 37.3331 25.126L37.3182 24.1262ZM52.9171 24.0428L52.8975 25.0426C52.904 25.0427 52.9106 25.0428 52.9171 25.0428V24.0428ZM42.8673 49.0784V48.0784C42.315 48.0784 41.8673 48.5261 41.8673 49.0784H42.8673ZM38.6208 49.0784H39.6208C39.6208 48.5261 39.173 48.0784 38.6208 48.0784V49.0784ZM38.6208 44.9106V45.9106C39.173 45.9106 39.6208 45.4629 39.6208 44.9106H38.6208ZM42.8673 44.9106H41.8673C41.8673 45.4629 42.315 45.9106 42.8673 45.9106V44.9106ZM61.024 23.1262C60.1118 23.1169 59.2024 23.1044 58.2931 23.0919L58.2657 25.0918C59.1744 25.1042 60.0872 25.1167 61.0036 25.1261L61.024 23.1262ZM79 40.7974C79 30.5572 71.3709 23.1262 61.0138 23.1262V25.1262C70.304 25.1262 77 31.699 77 40.7974H79ZM79 53.2175V40.7974H77V53.2175H79ZM61.0138 70.8888C71.3709 70.8888 79 63.4578 79 53.2175H77C77 62.316 70.304 68.8888 61.0138 68.8888V70.8888ZM49.1801 71C53.1481 71 57.0906 70.9722 61.035 70.8886L60.9926 68.8891C57.0668 68.9722 53.1391 69 49.1801 69V71ZM37.2687 70.8886C41.2131 70.9722 45.2123 71 49.1801 71V69C45.2211 69 41.2368 68.9722 37.311 68.8891L37.2687 70.8886ZM19.3037 53.2175C19.3037 63.4578 26.9328 70.8888 37.2898 70.8888V68.8888C27.9996 68.8888 21.3037 62.316 21.3037 53.2175H19.3037ZM19.3037 40.7974V53.2175H21.3037V40.7974H19.3037ZM37.3182 23.1262C26.9339 23.1262 19.3037 30.5561 19.3037 40.7974H21.3037C21.3037 31.7001 27.9985 25.1262 37.3182 25.1262V23.1262ZM48.6706 23.015C44.8118 23.015 41.011 23.0707 37.3032 23.1263L37.3331 25.126C41.0426 25.0705 44.829 25.015 48.6706 25.015V23.015ZM52.9367 23.043C51.5098 23.015 50.0844 23.015 48.6706 23.015V25.015C50.0877 25.015 51.4934 25.015 52.8975 25.0426L52.9367 23.043ZM58.2931 23.0919C56.5013 23.0674 54.7098 23.0428 52.9171 23.0428V25.0428C54.6938 25.0428 56.4716 25.0672 58.2657 25.0918L58.2931 23.0919ZM42.8673 50.0784H45.8399V48.0784H42.8673V50.0784ZM43.8673 52.0237V49.0784H41.8673V52.0237H43.8673ZM40.744 55.1076C42.4393 55.1076 43.8673 53.7327 43.8673 52.0237H41.8673C41.8673 52.593 41.3702 53.1076 40.744 53.1076V55.1076ZM37.6208 52.0237C37.6208 53.7241 39.0117 55.1076 40.744 55.1076V53.1076C40.0983 53.1076 39.6208 52.6016 39.6208 52.0237H37.6208ZM37.6208 49.0784V52.0237H39.6208V49.0784H37.6208ZM35.6199 50.0784H38.6208V48.0784H35.6199V50.0784ZM32.4966 46.9945C32.4966 48.7399 33.9334 50.0784 35.6199 50.0784V48.0784C34.9849 48.0784 34.4966 47.583 34.4966 46.9945H32.4966ZM35.6199 43.9106C33.9246 43.9106 32.4966 45.2854 32.4966 46.9945H34.4966C34.4966 46.4251 34.9937 45.9106 35.6199 45.9106V43.9106ZM38.6208 43.9106H35.6199V45.9106H38.6208V43.9106ZM37.6208 41.9931V44.9106H39.6208V41.9931H37.6208ZM40.744 38.9092C39.0117 38.9092 37.6208 40.2927 37.6208 41.9931H39.6208C39.6208 41.4151 40.0983 40.9092 40.744 40.9092V38.9092ZM43.8673 41.9931C43.8673 40.284 42.4393 38.9092 40.744 38.9092V40.9092C41.3702 40.9092 41.8673 41.4237 41.8673 41.9931H43.8673ZM43.8673 44.9106V41.9931H41.8673V44.9106H43.8673ZM45.8399 43.9106H42.8673V45.9106H45.8399V43.9106ZM48.9631 46.9945C48.9631 45.2854 47.5352 43.9106 45.8399 43.9106V45.9106C46.466 45.9106 46.9631 46.4251 46.9631 46.9945H48.9631ZM45.8399 50.0784C47.5264 50.0784 48.9631 48.7399 48.9631 46.9945H46.9631C46.9631 47.583 46.4748 48.0784 45.8399 48.0784V50.0784ZM58.1553 43.3838H57.8722V45.3838H58.1553V43.3838ZM59.2786 42.2998C59.2786 42.8884 58.7903 43.3838 58.1553 43.3838V45.3838C59.8418 45.3838 61.2786 44.0453 61.2786 42.2998H59.2786ZM58.1553 41.2159C58.7815 41.2159 59.2786 41.7305 59.2786 42.2998H61.2786C61.2786 40.5908 59.8506 39.2159 58.1553 39.2159V41.2159ZM57.8722 41.2159H58.1553V39.2159H57.8722V41.2159ZM56.7489 42.2998C56.7489 41.7218 57.2265 41.2159 57.8722 41.2159V39.2159C56.1399 39.2159 54.7489 40.5994 54.7489 42.2998H56.7489ZM57.8722 43.3838C57.2177 43.3838 56.7489 42.897 56.7489 42.2998H54.7489C54.7489 44.0367 56.1486 45.3838 57.8722 45.3838V43.3838ZM62.9958 52.9412H62.7127V54.9412H62.9958V52.9412ZM64.1191 51.8573C64.1191 52.4459 63.6308 52.9412 62.9958 52.9412V54.9412C64.6823 54.9412 66.1191 53.6027 66.1191 51.8573H64.1191ZM62.9958 50.7734C63.622 50.7734 64.1191 51.2879 64.1191 51.8573H66.1191C66.1191 50.1482 64.6911 48.7734 62.9958 48.7734V50.7734ZM62.7127 50.7734H62.9958V48.7734H62.7127V50.7734ZM61.5895 51.8573C61.5895 51.2793 62.067 50.7734 62.7127 50.7734V48.7734C60.9804 48.7734 59.5895 50.1569 59.5895 51.8573H61.5895ZM62.7127 52.9412C62.0583 52.9412 61.5895 52.4544 61.5895 51.8573H59.5895C59.5895 53.5941 60.9891 54.9412 62.7127 54.9412V52.9412Z" fill="url(#paint1_linear)" mask="url(#path-3-outside-1)"/>
</g>
<g filter="url(#filter3_bd)">
<mask id="path-5-inside-2" fill="white">
<path fill-rule="evenodd" clip-rule="evenodd" d="M57.8596 44.3984H58.1427C59.3034 44.3984 60.266 43.4815 60.266 42.3145C60.266 41.1753 59.3034 40.2306 58.1427 40.2306H57.8596C56.6706 40.2306 55.7363 41.1753 55.7363 42.3145C55.7363 43.4815 56.6706 44.3984 57.8596 44.3984ZM62.7008 53.9572H62.9839C64.1446 53.9572 65.1072 53.0403 65.1072 51.8733C65.1072 50.7341 64.1446 49.7894 62.9839 49.7894H62.7008C61.5118 49.7894 60.5775 50.7341 60.5775 51.8733C60.5775 53.0403 61.5118 53.9572 62.7008 53.9572Z"/>
</mask>
<path fill-rule="evenodd" clip-rule="evenodd" d="M57.8596 44.3984H58.1427C59.3034 44.3984 60.266 43.4815 60.266 42.3145C60.266 41.1753 59.3034 40.2306 58.1427 40.2306H57.8596C56.6706 40.2306 55.7363 41.1753 55.7363 42.3145C55.7363 43.4815 56.6706 44.3984 57.8596 44.3984ZM62.7008 53.9572H62.9839C64.1446 53.9572 65.1072 53.0403 65.1072 51.8733C65.1072 50.7341 64.1446 49.7894 62.9839 49.7894H62.7008C61.5118 49.7894 60.5775 50.7341 60.5775 51.8733C60.5775 53.0403 61.5118 53.9572 62.7008 53.9572Z" fill="url(#paint2_linear)"/>
<path d="M58.1427 43.9984H57.8596V44.7984H58.1427V43.9984ZM59.866 42.3145C59.866 43.2501 59.0931 43.9984 58.1427 43.9984V44.7984C59.5137 44.7984 60.666 43.7129 60.666 42.3145H59.866ZM58.1427 40.6306C59.0896 40.6306 59.866 41.4032 59.866 42.3145H60.666C60.666 40.9474 59.5172 39.8306 58.1427 39.8306V40.6306ZM57.8596 40.6306H58.1427V39.8306H57.8596V40.6306ZM56.1363 42.3145C56.1363 41.3998 56.8879 40.6306 57.8596 40.6306V39.8306C56.4532 39.8306 55.3363 40.9508 55.3363 42.3145H56.1363ZM57.8596 43.9984C56.8844 43.9984 56.1363 43.2536 56.1363 42.3145H55.3363C55.3363 43.7094 56.4567 44.7984 57.8596 44.7984V43.9984ZM62.9839 53.5572H62.7008V54.3572H62.9839V53.5572ZM64.7072 51.8733C64.7072 52.809 63.9343 53.5572 62.9839 53.5572V54.3572C64.3549 54.3572 65.5072 53.2717 65.5072 51.8733H64.7072ZM62.9839 50.1894C63.9308 50.1894 64.7072 50.9621 64.7072 51.8733H65.5072C65.5072 50.5062 64.3585 49.3894 62.9839 49.3894V50.1894ZM62.7008 50.1894H62.9839V49.3894H62.7008V50.1894ZM60.9775 51.8733C60.9775 50.9586 61.7291 50.1894 62.7008 50.1894V49.3894C61.2945 49.3894 60.1775 50.5096 60.1775 51.8733H60.9775ZM62.7008 53.5572C61.7256 53.5572 60.9775 52.8124 60.9775 51.8733H60.1775C60.1775 53.2683 61.298 54.3572 62.7008 54.3572V53.5572Z" fill="url(#paint3_linear)" mask="url(#path-5-inside-2)"/>
</g>
<g filter="url(#filter4_bd)">
<mask id="path-7-inside-3" fill="white">
<path d="M45.8286 49.0935H42.856V52.0388C42.856 53.178 41.8935 54.1227 40.7328 54.1227C39.5437 54.1227 38.6095 53.178 38.6095 52.0388V49.0935H35.6086C34.4479 49.0935 33.4854 48.1766 33.4854 47.0096C33.4854 45.8704 34.4479 44.9257 35.6086 44.9257H38.6095V42.0082C38.6095 40.869 39.5437 39.9243 40.7328 39.9243C41.8935 39.9243 42.856 40.869 42.856 42.0082V44.9257H45.8286C46.9893 44.9257 47.9519 45.8704 47.9519 47.0096C47.9519 48.1766 46.9893 49.0935 45.8286 49.0935Z"/>
</mask>
<path d="M45.8286 49.0935H42.856V52.0388C42.856 53.178 41.8935 54.1227 40.7328 54.1227C39.5437 54.1227 38.6095 53.178 38.6095 52.0388V49.0935H35.6086C34.4479 49.0935 33.4854 48.1766 33.4854 47.0096C33.4854 45.8704 34.4479 44.9257 35.6086 44.9257H38.6095V42.0082C38.6095 40.869 39.5437 39.9243 40.7328 39.9243C41.8935 39.9243 42.856 40.869 42.856 42.0082V44.9257H45.8286C46.9893 44.9257 47.9519 45.8704 47.9519 47.0096C47.9519 48.1766 46.9893 49.0935 45.8286 49.0935Z" fill="url(#paint4_linear)"/>
<path d="M42.856 49.0935V48.6935H42.456V49.0935H42.856ZM38.6095 49.0935H39.0095V48.6935H38.6095V49.0935ZM38.6095 44.9257V45.3257H39.0095V44.9257H38.6095ZM42.856 44.9257H42.456V45.3257H42.856V44.9257ZM45.8286 48.6935H42.856V49.4935H45.8286V48.6935ZM42.456 49.0935V52.0388H43.256V49.0935H42.456ZM42.456 52.0388C42.456 52.9501 41.6797 53.7227 40.7328 53.7227V54.5227C42.1073 54.5227 43.256 53.4059 43.256 52.0388H42.456ZM40.7328 53.7227C39.7611 53.7227 39.0095 52.9535 39.0095 52.0388H38.2095C38.2095 53.4025 39.3264 54.5227 40.7328 54.5227V53.7227ZM39.0095 52.0388V49.0935H38.2095V52.0388H39.0095ZM38.6095 48.6935H35.6086V49.4935H38.6095V48.6935ZM35.6086 48.6935C34.6582 48.6935 33.8854 47.9452 33.8854 47.0096H33.0854C33.0854 48.408 34.2376 49.4935 35.6086 49.4935V48.6935ZM33.8854 47.0096C33.8854 46.0983 34.6617 45.3257 35.6086 45.3257V44.5257C34.2341 44.5257 33.0854 45.6425 33.0854 47.0096H33.8854ZM35.6086 45.3257H38.6095V44.5257H35.6086V45.3257ZM39.0095 44.9257V42.0082H38.2095V44.9257H39.0095ZM39.0095 42.0082C39.0095 41.0935 39.7611 40.3243 40.7328 40.3243V39.5243C39.3264 39.5243 38.2095 40.6445 38.2095 42.0082H39.0095ZM40.7328 40.3243C41.6797 40.3243 42.456 41.097 42.456 42.0082H43.256C43.256 40.6411 42.1073 39.5243 40.7328 39.5243V40.3243ZM42.456 42.0082V44.9257H43.256V42.0082H42.456ZM42.856 45.3257H45.8286V44.5257H42.856V45.3257ZM45.8286 45.3257C46.7755 45.3257 47.5519 46.0983 47.5519 47.0096H48.3519C48.3519 45.6425 47.2032 44.5257 45.8286 44.5257V45.3257ZM47.5519 47.0096C47.5519 47.9452 46.779 48.6935 45.8286 48.6935V49.4935C47.1996 49.4935 48.3519 48.408 48.3519 47.0096H47.5519Z" fill="url(#paint5_linear)" mask="url(#path-7-inside-3)"/>
</g>
<defs>
<filter id="filter0_b" x="-4" y="-13" width="84.6382" height="84.625" filterUnits="userSpaceOnUse" color-interpolation-filters="sRGB">
<feFlood flood-opacity="0" result="BackgroundImageFix"/>
<feGaussianBlur in="BackgroundImage" stdDeviation="6.5"/>
<feComposite in2="SourceAlpha" operator="in" result="effect1_backgroundBlur"/>
<feBlend mode="normal" in="SourceGraphic" in2="effect1_backgroundBlur" result="shape"/>
</filter>
<filter id="filter1_f" x="0.973633" y="4.04492" width="74.2696" height="63.6656" filterUnits="userSpaceOnUse" color-interpolation-filters="sRGB">
<feFlood flood-opacity="0" result="BackgroundImageFix"/>
<feBlend mode="normal" in="SourceGraphic" in2="BackgroundImageFix" result="shape"/>
<feGaussianBlur stdDeviation="8.5" result="effect1_foregroundBlur"/>
</filter>
<filter id="filter2_b" x="-4.69629" y="-0.984985" width="107.696" height="95.985" filterUnits="userSpaceOnUse" color-interpolation-filters="sRGB">
<feFlood flood-opacity="0" result="BackgroundImageFix"/>
<feGaussianBlur in="BackgroundImage" stdDeviation="12"/>
<feComposite in2="SourceAlpha" operator="in" result="effect1_backgroundBlur"/>
<feBlend mode="normal" in="SourceGraphic" in2="effect1_backgroundBlur" result="shape"/>
</filter>
<filter id="filter3_bd" x="40.7363" y="25.2306" width="39.3708" height="43.7267" filterUnits="userSpaceOnUse" color-interpolation-filters="sRGB">
<feFlood flood-opacity="0" result="BackgroundImageFix"/>
<feGaussianBlur in="BackgroundImage" stdDeviation="7.5"/>
<feComposite in2="SourceAlpha" operator="in" result="effect1_backgroundBlur"/>
<feColorMatrix in="SourceAlpha" type="matrix" values="0 0 0 0 0 0 0 0 0 0 0 0 0 0 0 0 0 0 127 0"/>
<feOffset dx="5" dy="5"/>
<feGaussianBlur stdDeviation="5"/>
<feColorMatrix type="matrix" values="0 0 0 0 1 0 0 0 0 0.321569 0 0 0 0 0.54902 0 0 0 0.5 0"/>
<feBlend mode="normal" in2="effect1_backgroundBlur" result="effect2_dropShadow"/>
<feBlend mode="normal" in="SourceGraphic" in2="effect2_dropShadow" result="shape"/>
</filter>
<filter id="filter4_bd" x="18.4854" y="24.9243" width="44.4665" height="44.1984" filterUnits="userSpaceOnUse" color-interpolation-filters="sRGB">
<feFlood flood-opacity="0" result="BackgroundImageFix"/>
<feGaussianBlur in="BackgroundImage" stdDeviation="7.5"/>
<feComposite in2="SourceAlpha" operator="in" result="effect1_backgroundBlur"/>
<feColorMatrix in="SourceAlpha" type="matrix" values="0 0 0 0 0 0 0 0 0 0 0 0 0 0 0 0 0 0 127 0"/>
<feOffset dx="5" dy="5"/>
<feGaussianBlur stdDeviation="5"/>
<feColorMatrix type="matrix" values="0 0 0 0 0 0 0 0 0 0.592157 0 0 0 0 0.956863 0 0 0 0.5 0"/>
<feBlend mode="normal" in2="effect1_backgroundBlur" result="effect2_dropShadow"/>
<feBlend mode="normal" in="SourceGraphic" in2="effect2_dropShadow" result="shape"/>
</filter>
<linearGradient id="paint0_linear" x1="42.636" y1="33.2383" x2="-8.88431" y2="58.2943" gradientUnits="userSpaceOnUse">
<stop stop-color="#67C5FF"/>
<stop offset="1" stop-color="#0097F4"/>
</linearGradient>
<linearGradient id="paint1_linear" x1="29.488" y1="29.3723" x2="56.7987" y2="71.8118" gradientUnits="userSpaceOnUse">
<stop stop-color="white" stop-opacity="0.25"/>
<stop offset="1" stop-color="white" stop-opacity="0"/>
</linearGradient>
<linearGradient id="paint2_linear" x1="64.4428" y1="42.7093" x2="53.9986" y2="42.9418" gradientUnits="userSpaceOnUse">
<stop stop-color="white"/>
<stop offset="1" stop-color="white" stop-opacity="0.2"/>
</linearGradient>
<linearGradient id="paint3_linear" x1="57.228" y1="41.8298" x2="66.0606" y2="49.2978" gradientUnits="userSpaceOnUse">
<stop stop-color="white" stop-opacity="0.25"/>
<stop offset="1" stop-color="white" stop-opacity="0"/>
</linearGradient>
<linearGradient id="paint4_linear" x1="46.9262" y1="42.4883" x2="30.8125" y2="43.0236" gradientUnits="userSpaceOnUse">
<stop stop-color="white"/>
<stop offset="1" stop-color="white" stop-opacity="0.2"/>
</linearGradient>
<linearGradient id="paint5_linear" x1="35.7882" y1="41.5784" x2="44.8081" y2="52.9608" gradientUnits="userSpaceOnUse">
<stop stop-color="white" stop-opacity="0.25"/>
<stop offset="1" stop-color="white" stop-opacity="0"/>
</linearGradient>
</defs>
</svg>
